<svg id="drawing" width="420" height="600" xmlns="http://www.w3.org/2000/svg"><polygon points="60,60 60,60" stroke-width="8" fill="none" stroke="black"></polygon><polygon points="120,60 120,180 300,120 120,60" stroke-width="8" fill="none" stroke="black"></polygon><polyline points="120,120 60,120 60,120" stroke-width="8" fill="none" stroke="black"></polyline><polyline points="300,120 360,120 360,120" stroke-width="8" fill="none" stroke="black"></polyline><polyline points="60,300 120,300 120,240 300,240 300,360 120,360 120,300 120,300" stroke-width="8" fill="none" stroke="black"></polyline><polyline points="300,300 360,300 360,300" stroke-width="8" fill="none" stroke="black"></polyline><polyline points="60,480 180,480 180,420 180,540 180,540" stroke-width="8" fill="none" stroke="black"></polyline><polyline points="240,540 240,420 240,480 360,480 360,480" stroke-width="8" fill="none" stroke="black"></polyline><circle cx="60" cy="120" r="10" stroke-width="3" fill="white" stroke="black"></circle><circle cx="360" cy="120" r="10" stroke-width="3" fill="white" stroke="black"></circle><circle cx="60" cy="300" r="10" stroke-width="3" fill="white" stroke="black"></circle><circle cx="360" cy="300" r="10" stroke-width="3" fill="white" stroke="black"></circle><circle cx="60" cy="480" r="10" stroke-width="3" fill="white" stroke="black"></circle><circle cx="360" cy="480" r="10" stroke-width="3" fill="white" stroke="black"></circle></svg>