<svg id="drawing" width="480" height="900" xmlns="http://www.w3.org/2000/svg"><polyline points="300,60 300,180 240,180 240,300 300,300 300,420 300,420" stroke-width="8" fill="none" stroke="black"></polyline><polyline points="300,420 300,540 240,540 240,660 300,660 300,780 300,780" stroke-width="8" fill="none" stroke="black"></polyline><polyline points="330,45 270,75 270,75" stroke-width="8" fill="none" stroke="black"></polyline><polyline points="255,780 345,780 345,780" stroke-width="8" fill="none" stroke="black"></polyline><polyline points="270,795 330,795 330,795" stroke-width="8" fill="none" stroke="black"></polyline><polyline points="285,810 315,810 315,810" stroke-width="8" fill="none" stroke="black"></polyline><polyline points="225,540 225,660 225,660" stroke-width="8" fill="none" stroke="black"></polyline><polyline points="225,300 225,180 225,180" stroke-width="8" fill="none" stroke="black"></polyline><polyline points="225,240 180,240 180,240" stroke-width="8" fill="none" stroke="black"></polyline><polyline points="225,600 180,600 180,600" stroke-width="8" fill="none" stroke="black"></polyline><polyline points="300,420 420,420 420,420" stroke-width="8" fill="none" stroke="black"></polyline><polyline points="180,240 120,240 120,600 180,600 180,600" stroke-width="8" fill="none" stroke="black"></polyline><polyline points="120,420 60,420 60,420" stroke-width="8" fill="none" stroke="black"></polyline><circle cx="210" cy="240" r="10" stroke-width="3" fill="white" stroke="black"></circle><circle cx="60" cy="420" r="10" stroke-width="3" fill="white" stroke="black"></circle><circle cx="60" cy="420" r="10" stroke-width="3" fill="white" stroke="black"></circle><circle cx="300" cy="420" r="10" stroke-width="3"></circle><circle cx="420" cy="420" r="10" stroke-width="3" fill="white" stroke="black"></circle></svg>