<svg id="drawing" width="660" height="660" xmlns="http://www.w3.org/2000/svg"><polyline points="180,240 120,240 120,240" stroke-width="8" fill="none" stroke="black"></polyline><polyline points="180,300 120,300 120,300" stroke-width="8" fill="none" stroke="black"></polyline><polyline points="180,360 120,360 120,360" stroke-width="8" fill="none" stroke="black"></polyline><polyline points="180,420 120,420 120,420" stroke-width="8" fill="none" stroke="black"></polyline><polyline points="180,480 120,480 120,480" stroke-width="8" fill="none" stroke="black"></polyline><polyline points="180,540 120,540 120,540" stroke-width="8" fill="none" stroke="black"></polyline><polyline points="480,240 540,240 540,240" stroke-width="8" fill="none" stroke="black"></polyline><polyline points="480,300 540,300 540,300" stroke-width="8" fill="none" stroke="black"></polyline><polyline points="480,360 540,360 540,360" stroke-width="8" fill="none" stroke="black"></polyline><polyline points="480,420 540,420 540,420" stroke-width="8" fill="none" stroke="black"></polyline><polyline points="480,480 540,480 540,480" stroke-width="8" fill="none" stroke="black"></polyline><polyline points="480,540 540,540 540,540" stroke-width="8" fill="none" stroke="black"></polyline><polyline points="120,180 180,180 180,180" stroke-width="8" fill="none" stroke="black"></polyline><polyline points="120,120 180,120 180,120" stroke-width="8" fill="none" stroke="black"></polyline><polyline points="480,120 540,120 540,120" stroke-width="8" fill="none" stroke="black"></polyline><polyline points="480,180 540,180 540,180" stroke-width="8" fill="none" stroke="black"></polyline><polygon points="180,60 480,60 480,600 180,600 180,60" stroke-width="8" fill="none" stroke="black"></polygon><circle cx="120" cy="120" r="10" stroke-width="3" fill="white" stroke="black"></circle><circle cx="120" cy="180" r="10" stroke-width="3" fill="white" stroke="black"></circle><circle cx="120" cy="240" r="10" stroke-width="3" fill="white" stroke="black"></circle><circle cx="120" cy="300" r="10" stroke-width="3" fill="white" stroke="black"></circle><circle cx="120" cy="360" r="10" stroke-width="3" fill="white" stroke="black"></circle><circle cx="120" cy="420" r="10" stroke-width="3" fill="white" stroke="black"></circle><circle cx="120" cy="480" r="10" stroke-width="3" fill="white" stroke="black"></circle><circle cx="120" cy="540" r="10" stroke-width="3" fill="white" stroke="black"></circle><circle cx="540" cy="540" r="10" stroke-width="3" fill="white" stroke="black"></circle><circle cx="540" cy="480" r="10" stroke-width="3" fill="white" stroke="black"></circle><circle cx="540" cy="420" r="10" stroke-width="3" fill="white" stroke="black"></circle><circle cx="540" cy="300" r="10" stroke-width="3" fill="white" stroke="black"></circle><circle cx="540" cy="240" r="10" stroke-width="3" fill="white" stroke="black"></circle><circle cx="540" cy="180" r="10" stroke-width="3" fill="white" stroke="black"></circle><circle cx="540" cy="120" r="10" stroke-width="3" fill="white" stroke="black"></circle><circle cx="540" cy="360" r="10" stroke-width="3" fill="white" stroke="black"></circle></svg>